<?xml version="1.0" standalone="no"?>
<!DOCTYPE svg PUBLIC "-//W3C//DTD SVG 20010904//EN"
 "http://www.w3.org/TR/2001/REC-SVG-20010904/DTD/svg10.dtd">
<svg version="1.0" xmlns="http://www.w3.org/2000/svg"
 width="154.000000pt" height="132.000000pt" viewBox="0 0 154.000000 132.000000"
 preserveAspectRatio="xMidYMid meet">

<g transform="translate(0.000000,132.000000) scale(0.100000,-0.100000)"
fill="#000000" stroke="none">
<path d="M791 1246 c-7 -9 -10 -16 -5 -17 5 0 1 -4 -9 -8 -10 -4 -18 -10 -17
-14 0 -4 -6 -15 -15 -23 -8 -9 -15 -23 -15 -32 0 -15 2 -15 11 -2 8 11 9 4 6
-27 -3 -29 -1 -43 6 -43 8 0 7 -4 -2 -9 -10 -6 -10 -10 -1 -16 6 -4 9 -14 6
-22 -4 -9 -2 -11 6 -7 8 5 9 2 5 -10 -4 -10 -7 -20 -7 -22 0 -3 -6 -2 -12 3
-25 15 -35 11 -30 -13 2 -13 11 -24 20 -24 12 0 13 3 4 12 -7 7 -12 17 -12 22
0 6 5 5 11 -1 6 -6 18 -9 25 -6 8 3 14 0 14 -6 0 -6 -4 -11 -9 -11 -5 0 -7 -9
-4 -20 3 -11 9 -18 13 -15 8 5 5 46 -6 105 -3 19 -7 62 -8 94 -1 51 2 63 23
82 13 12 22 27 19 34 -3 9 -8 8 -17 -4z"/>
<path d="M555 1178 c-4 -20 -4 -50 0 -67 6 -30 47 -71 69 -71 8 0 8 2 0 8 -12
7 -38 54 -54 97 -17 45 8 27 42 -30 36 -60 52 -71 42 -27 -9 36 -14 43 -25 37
-5 -4 -9 1 -9 9 0 8 -8 21 -18 28 -10 7 -23 22 -29 33 -10 17 -12 16 -18 -17z
m30 -88 c3 -5 1 -10 -4 -10 -6 0 -11 5 -11 10 0 6 2 10 4 10 3 0 8 -4 11 -10z"/>
<path d="M807 1193 c-11 -10 -8 -63 5 -86 7 -12 11 -33 10 -47 l-1 -25 8 25
c5 16 4 33 -5 47 -20 33 -16 42 6 14 11 -13 20 -31 20 -40 0 -9 5 -22 11 -28
12 -12 -14 -73 -31 -73 -5 0 -8 -19 -8 -42 l0 -42 24 29 c12 16 21 33 18 37
-8 13 -25 -2 -18 -15 5 -8 2 -8 -7 1 -11 10 -9 16 10 35 13 12 21 17 17 10 -3
-6 -2 -14 4 -18 14 -9 12 52 -3 95 -7 19 -20 47 -30 62 -10 14 -19 36 -20 47
-1 24 -1 23 -10 14z"/>
<path d="M969 1181 c-35 -27 -57 -74 -51 -111 5 -37 11 -33 22 14 5 25 4 36
-4 36 -6 0 -2 7 8 15 11 8 16 15 12 15 -4 0 -1 7 8 15 8 8 17 15 21 15 9 0 1
-54 -10 -62 -6 -5 -4 -12 5 -18 12 -8 16 -3 18 20 2 17 2 42 0 56 l-3 26 -26
-21z"/>
<path d="M717 1116 c-3 -8 -4 -25 -2 -38 3 -12 -1 -25 -8 -30 -7 -4 -4 -7 9
-6 18 2 20 7 17 42 -5 47 -8 53 -16 32z"/>
<path d="M958 1065 c-3 -14 -2 -25 2 -25 14 0 32 29 25 40 -11 17 -22 11 -27
-15z"/>
<path d="M1176 1055 c3 -6 -4 -19 -15 -29 -11 -10 -18 -23 -15 -28 3 -4 1 -7
-5 -6 -12 3 -93 -94 -85 -101 3 -3 9 1 14 9 9 13 10 13 11 0 1 -8 1 -21 0 -27
-1 -7 5 -13 13 -13 19 0 38 36 60 111 9 31 23 62 31 69 19 16 19 27 1 27 -8 0
-12 -5 -10 -12z m-43 -107 c-12 -58 -43 -99 -34 -45 0 4 -4 7 -9 7 -7 0 -7 7
0 20 6 12 16 18 23 14 7 -4 9 -4 5 1 -4 4 -3 14 3 22 17 20 19 16 12 -19z"/>
<path d="M1065 1039 c-58 -22 -101 -59 -83 -71 10 -6 8 -8 -4 -8 -19 0 -38
-53 -38 -104 0 -30 1 -29 58 31 143 151 159 171 137 171 -12 0 -43 -9 -70 -19z
m23 -28 c-7 -12 -18 -19 -25 -17 -6 3 -19 -2 -30 -9 -16 -13 -16 -14 11 -9 26
4 27 3 12 -11 -9 -9 -16 -20 -16 -24 0 -4 -7 -8 -15 -8 -8 0 -15 5 -15 10 0 6
-3 7 -6 4 -4 -4 -2 -13 4 -20 16 -19 -32 -67 -50 -49 -6 6 -8 15 -4 19 4 4 11
1 16 -7 6 -8 10 -10 10 -4 0 5 -5 15 -12 22 -9 9 -7 17 9 34 11 13 18 28 16
35 -5 14 46 42 66 35 9 -3 11 0 6 8 -6 10 -4 12 8 7 10 -4 17 -1 17 5 0 6 3 9
6 6 3 -3 -1 -16 -8 -27z"/>
<path d="M426 1032 c1 -9 6 -38 9 -63 4 -31 10 -46 21 -46 10 0 11 4 4 11 -19
19 -10 29 10 11 19 -17 28 -41 12 -31 -4 2 -14 1 -21 -3 -18 -11 3 -51 26 -51
14 0 14 2 -3 16 -10 8 -13 13 -6 9 6 -3 12 -2 12 3 0 17 35 7 58 -15 22 -23
31 -50 12 -38 -5 3 -10 1 -10 -5 0 -8 11 -9 33 -5 31 7 31 6 10 -9 -32 -24
-74 3 -57 37 3 7 -1 4 -9 -6 -10 -12 -17 -14 -22 -8 -3 6 -11 11 -17 11 -14 0
9 -28 35 -42 11 -5 33 -14 49 -19 24 -6 29 -5 25 6 -3 7 1 16 9 19 12 4 14 1
9 -14 -5 -17 -2 -20 21 -20 l28 0 -34 35 c-18 19 -36 32 -40 30 -4 -3 -10 5
-13 17 -4 12 -9 20 -12 16 -3 -3 -31 18 -62 47 -45 42 -56 58 -56 83 0 17 -6
33 -13 36 -7 3 -10 -2 -8 -12z"/>
<path d="M840 1029 c0 -5 -4 -7 -10 -4 -6 3 -10 -4 -10 -16 0 -12 1 -20 3 -18
1 2 11 14 21 27 11 12 14 22 8 22 -7 0 -12 -5 -12 -11z"/>
<path d="M481 984 c18 -20 54 -50 79 -66 25 -17 62 -47 83 -66 26 -26 37 -31
37 -20 0 27 -12 51 -20 39 -4 -8 -13 -5 -28 7 -12 11 -22 22 -22 25 0 7 36 1
53 -10 7 -4 5 3 -4 17 -21 33 -77 70 -103 70 -21 -1 -21 -1 -1 -12 11 -6 23
-16 27 -22 5 -7 8 -7 8 2 0 7 5 10 10 7 7 -4 6 -13 -1 -27 -8 -15 -13 -17 -19
-8 -4 6 -9 11 -11 10 -9 -3 -39 13 -39 21 0 14 -58 69 -72 69 -7 0 4 -16 23
-36z m149 -63 c0 -4 -6 -8 -14 -8 -8 0 -12 6 -9 14 5 13 23 9 23 -6z"/>
<path d="M754 923 c14 -15 28 -24 31 -21 8 8 -31 48 -45 48 -6 0 0 -12 14 -27z"/>
<path d="M1238 881 c11 -7 10 -10 -3 -15 -24 -9 -27 -8 -20 7 4 6 -5 -1 -20
-17 -32 -35 -26 -45 12 -19 31 21 79 43 93 43 22 0 7 -20 -37 -49 -27 -17 -41
-31 -32 -31 22 0 109 67 109 84 0 3 -26 6 -57 6 -36 0 -53 -4 -45 -9z"/>
<path d="M1013 846 c-16 -19 -21 -32 -14 -34 16 -5 71 18 71 30 0 5 6 6 13 3
6 -4 4 0 -5 8 -10 8 -16 16 -13 19 3 2 -2 5 -11 5 -8 0 -27 -14 -41 -31z m41
-1 c-4 -8 -10 -12 -15 -9 -11 6 -2 24 11 24 5 0 7 -7 4 -15z"/>
<path d="M291 833 c38 -49 61 -61 114 -61 40 1 39 1 -23 22 -35 12 -63 26 -63
31 1 12 29 11 64 -3 16 -7 36 -12 45 -12 14 1 12 4 -7 20 -17 15 -38 20 -83
20 -56 0 -59 -1 -47 -17z"/>
<path d="M767 732 c-10 -54 -15 -106 -11 -117 5 -12 4 -16 -3 -12 -7 4 -10 -7
-10 -32 1 -28 4 -37 14 -34 8 3 13 -3 13 -17 0 -17 -3 -20 -13 -12 -11 9 -13
1 -13 -41 -1 -29 1 -42 3 -29 6 33 18 27 33 -18 12 -36 12 -43 -3 -58 -16 -15
-17 -15 -17 6 0 12 5 22 12 22 9 0 9 3 0 12 -19 19 -24 3 -17 -56 5 -38 12
-56 21 -56 17 0 18 17 2 22 -10 4 -10 10 -1 29 11 23 12 23 12 3 1 -22 31 -56
31 -36 0 6 -5 14 -11 17 -6 4 -8 13 -5 21 3 8 2 14 -2 14 -4 0 -8 12 -9 28 -1
15 -4 44 -8 66 -4 28 -1 43 10 56 8 9 12 20 8 25 -5 4 -2 5 5 1 8 -5 20 2 31
16 26 31 18 35 -15 9 -49 -39 -58 -29 -55 59 1 41 5 76 20 149 13 64 13 61 3
61 -4 0 -15 -44 -25 -98z m-2 -252 c3 -5 1 -10 -4 -10 -6 0 -11 5 -11 10 0 6
2 10 4 10 3 0 8 -4 11 -10z"/>
<path d="M1033 734 c-36 -18 -69 -51 -60 -61 6 -5 137 6 239 21 27 4 40 0 54
-15 13 -15 14 -19 3 -20 -8 0 -34 -2 -59 -4 -25 -3 -90 -8 -145 -12 l-100 -8
35 -25 c48 -34 119 -34 178 1 23 14 40 28 37 31 -3 2 3 5 13 5 9 -1 33 0 52 1
l34 2 -34 30 c-79 68 -176 89 -247 54z m53 -2 c-3 -5 10 -8 29 -8 18 1 31 4
28 9 -6 10 1 9 34 -5 15 -6 32 -10 36 -9 5 1 6 -3 2 -9 -5 -8 -11 -8 -21 0
-10 9 -21 9 -41 1 l-28 -11 30 5 c25 4 27 3 12 -6 -10 -6 -38 -9 -63 -7 -24 2
-45 -1 -47 -6 -2 -5 -12 -6 -22 -2 -16 6 -17 9 -5 16 9 6 10 10 3 10 -7 0 -17
-8 -22 -17 -9 -16 -10 -16 -11 -2 0 10 15 23 38 32 43 18 55 20 48 9z m90
-109 c-15 -8 -30 -12 -34 -9 -3 3 1 6 9 6 12 0 11 2 -1 11 -12 8 -10 9 8 4 13
-4 22 -2 22 5 0 6 5 8 11 4 8 -4 2 -12 -15 -21z m-49 -8 c0 -8 -3 -13 -6 -13
-3 1 -14 -2 -25 -7 -11 -5 -26 -3 -37 3 -10 7 -25 12 -33 12 -8 0 -17 3 -19 8
-3 4 23 8 57 8 46 2 63 -2 63 -11z"/>
<path d="M1090 710 c-8 -5 -10 -10 -5 -10 6 0 17 5 25 10 8 5 11 10 5 10 -5 0
-17 -5 -25 -10z"/>
<path d="M458 708 c-15 -12 -15 -15 -2 -27 13 -11 15 -11 12 4 -2 13 5 18 31
21 47 6 52 14 10 14 -20 0 -43 -6 -51 -12z"/>
<path d="M574 711 c16 -3 32 -13 34 -21 5 -13 3 -13 -11 -1 -12 9 -17 10 -17
2 0 -7 -4 -10 -8 -7 -4 2 -14 1 -22 -5 -10 -6 5 -9 45 -9 l60 0 -29 25 c-16
14 -40 24 -55 24 -25 -1 -25 -2 3 -8z"/>
<path d="M515 690 c-3 -5 -3 -10 2 -10 4 0 1 -5 -7 -10 -13 -9 -13 -10 0 -10
8 0 21 9 28 20 10 17 10 20 -2 20 -8 0 -18 -4 -21 -10z"/>
<path d="M370 664 c-30 -12 -59 -20 -65 -17 -5 2 1 -5 15 -17 42 -36 179 -93
164 -68 -5 8 -1 9 12 3 43 -18 118 6 154 50 11 13 3 15 -61 14 -41 0 -109 -4
-151 -7 -61 -6 -79 -5 -83 6 -8 21 -7 22 26 22 17 0 28 4 24 10 -3 6 4 10 17
10 18 0 20 -2 8 -10 -11 -7 -4 -9 25 -9 22 1 31 4 20 6 -11 3 -27 11 -35 17
-12 10 -26 8 -70 -10z m167 -78 c9 -4 18 -4 21 -1 3 3 0 5 -6 5 -7 0 -12 7
-12 15 0 11 11 15 40 15 22 0 40 -4 40 -9 0 -12 -30 -22 -43 -14 -7 4 -8 0 -4
-11 6 -15 2 -16 -36 -11 -23 4 -64 8 -90 9 -60 3 -83 22 -27 22 21 0 37 -3 34
-8 -3 -4 0 -8 5 -8 6 0 11 5 11 10 0 6 5 10 11 10 5 0 7 -6 3 -12 -4 -7 2 -5
12 5 16 15 20 15 22 3 2 -8 10 -17 19 -20z"/>
<path d="M860 605 c-7 -9 -8 -15 -2 -15 5 0 12 7 16 15 3 8 4 15 2 15 -2 0 -9
-7 -16 -15z"/>
<path d="M274 527 c-2 -7 -3 -78 -2 -157 3 -141 4 -145 25 -148 22 -3 26 4 35
62 5 34 23 28 57 -19 19 -27 40 -45 52 -45 30 0 23 32 -18 85 l-36 48 32 26
c34 28 41 58 15 68 -10 4 -31 -9 -60 -38 l-44 -43 0 71 c0 39 -3 78 -6 87 -7
19 -43 21 -50 3z"/>
<path d="M74 520 c-54 -21 -72 -100 -31 -137 12 -12 48 -29 81 -39 62 -20 78
-37 54 -60 -18 -18 -36 -20 -106 -10 -49 7 -52 7 -52 -13 0 -24 23 -36 83 -44
81 -11 137 25 137 88 0 46 -18 64 -89 88 -75 26 -97 50 -66 73 14 11 38 14 80
12 50 -3 60 0 63 14 6 32 -98 51 -154 28z"/>
<path d="M481 436 c-9 -10 -2 -37 28 -116 39 -99 40 -103 25 -138 -17 -41 -12
-62 14 -62 14 0 31 31 75 143 58 146 65 171 47 182 -18 11 -39 -15 -61 -76
-12 -33 -25 -62 -29 -64 -4 -3 -18 23 -30 58 -33 88 -45 102 -69 73z"/>
<path d="M932 442 c-9 -6 -12 -36 -10 -113 3 -99 4 -104 26 -107 21 -3 22 0
22 72 0 66 3 77 22 90 12 9 30 16 39 16 18 0 29 18 22 38 -6 15 -45 16 -61 0
-9 -9 -15 -9 -24 0 -14 14 -19 14 -36 4z"/>
<path d="M1089 421 c-25 -26 -29 -37 -29 -85 0 -47 4 -61 28 -87 25 -28 35
-32 78 -32 55 0 94 16 94 38 0 22 -17 27 -56 16 -39 -11 -79 1 -88 25 -4 11 9
14 63 14 82 0 95 10 80 63 -21 78 -114 104 -170 48z m109 -33 c22 -22 13 -28
-38 -28 -27 0 -50 4 -50 8 0 16 25 32 50 32 14 0 31 -5 38 -12z"/>
<path d="M1320 422 c-26 -27 -30 -37 -30 -85 0 -93 55 -137 145 -117 56 13 76
57 24 53 -83 -7 -92 -6 -106 13 -13 18 -11 19 59 24 l73 5 3 36 c4 53 -29 89
-90 96 -42 5 -50 3 -78 -25z m108 -34 c22 -22 13 -28 -38 -28 -27 0 -50 4 -50
8 0 16 25 32 50 32 14 0 31 -5 38 -12z"/>
<path d="M805 269 c4 -13 10 -26 14 -29 3 -3 7 -15 8 -27 3 -28 -23 -21 -33 9
-3 11 -8 17 -11 14 -3 -3 -2 -13 2 -23 4 -10 8 -29 9 -43 1 -22 6 -25 39 -26
31 -1 37 2 31 15 -3 9 -14 41 -24 71 -10 30 -23 56 -30 58 -9 3 -10 -3 -5 -19z
m24 -91 c11 -11 12 -10 6 1 -5 9 -4 12 3 7 21 -13 13 -36 -11 -34 -14 1 -23 8
-23 20 0 21 7 23 25 6z"/>
<path d="M770 266 c0 -9 5 -16 10 -16 6 0 10 4 10 9 0 6 -4 13 -10 16 -5 3
-10 -1 -10 -9z"/>
<path d="M613 65 c0 -22 2 -30 4 -17 2 12 2 30 0 40 -3 9 -5 -1 -4 -23z"/>
<path d="M1162 50 c0 -14 2 -19 5 -12 2 6 2 18 0 25 -3 6 -5 1 -5 -13z"/>
<path d="M1361 54 c0 -11 3 -14 6 -6 3 7 2 16 -1 19 -3 4 -6 -2 -5 -13z"/>
<path d="M871 44 c0 -11 3 -14 6 -6 3 7 2 16 -1 19 -3 4 -6 -2 -5 -13z"/>
<path d="M1201 34 c0 -11 3 -14 6 -6 3 7 2 16 -1 19 -3 4 -6 -2 -5 -13z"/>
</g>
</svg>
